<?xml version="1.0" standalone="no"?>
<!DOCTYPE svg PUBLIC "-//W3C//DTD SVG 20010904//EN"
 "http://www.w3.org/TR/2001/REC-SVG-20010904/DTD/svg10.dtd">
<svg version="1.0" xmlns="http://www.w3.org/2000/svg"
 width="400.000000pt" height="400.000000pt" viewBox="0 0 400.000000 400.000000"
 preserveAspectRatio="xMidYMid meet">
<metadata>
Created by potrace 1.11, written by Peter Selinger 2001-2013
</metadata>
<g transform="translate(0.000000,400.000000) scale(0.100000,-0.100000)"
fill="#000000" stroke="none">
<path d="M19 3435 c-4 -40 -3 -2048 1 -2054 3 -4 311 -7 685 -7 374 1 688 -1
697 -3 10 -2 15 -7 12 -12 -3 -5 0 -9 7 -9 8 0 7 -5 -2 -17 -12 -15 -12 -16 1
-8 13 8 13 7 1 -8 -9 -12 -10 -17 -2 -17 7 0 9 -5 6 -11 -14 -22 -11 -74 4
-87 9 -8 10 -11 4 -7 -7 3 -13 3 -14 -2 0 -4 -2 -16 -4 -25 -2 -10 2 -19 8
-19 16 -2 -130 -34 -171 -38 -7 0 -11 -5 -8 -9 3 -5 -1 -9 -9 -9 -8 0 -15 5
-15 11 0 6 -4 5 -9 -3 -9 -14 -22 -19 -63 -23 -10 -1 -18 -6 -18 -11 0 -5 -7
-6 -16 -3 -8 3 -13 2 -10 -2 2 -4 -7 -12 -20 -19 -13 -6 -21 -7 -18 -1 3 5 -3
4 -15 -4 -12 -7 -21 -16 -21 -19 0 -7 -40 -22 -54 -20 -5 1 -6 -5 -3 -13 4
-11 1 -13 -10 -9 -11 4 -14 2 -9 -5 4 -8 1 -12 -10 -12 -10 0 -15 -3 -11 -6 3
-3 -5 -16 -18 -29 -14 -12 -22 -25 -18 -28 3 -4 1 -7 -6 -7 -7 0 -9 -5 -6 -10
3 -6 3 -10 -2 -10 -4 0 -8 -11 -8 -25 0 -14 3 -25 6 -25 3 0 4 -12 1 -26 -3
-17 -1 -25 5 -21 10 6 27 -27 24 -46 -1 -5 2 -6 7 -3 5 3 15 -4 22 -15 8 -10
20 -19 26 -19 7 0 15 -7 18 -16 3 -8 10 -12 16 -9 5 3 10 -2 10 -12 0 -15 2
-16 10 -3 6 9 10 10 10 3 0 -10 16 -19 45 -25 6 -1 16 -8 23 -15 8 -7 17 -11
22 -8 5 3 10 1 12 -4 1 -6 20 -12 41 -14 22 -2 42 -8 45 -13 4 -5 14 -9 22 -9
8 0 17 -3 20 -7 4 -4 23 -9 43 -10 20 -2 37 -6 37 -9 0 -4 6 -7 13 -6 51 2 78
-4 71 -15 -6 -10 -5 -10 7 -1 12 10 18 10 27 1 9 -9 12 -9 12 0 0 10 5 10 21
1 12 -6 34 -9 50 -7 17 3 29 0 29 -6 0 -6 5 -4 10 4 5 8 10 10 10 3 0 -6 9 -9
22 -5 16 4 19 2 13 -8 -6 -9 -4 -11 4 -5 18 11 71 13 77 3 3 -5 12 -3 21 3 11
10 16 10 23 0 5 -9 10 -10 14 -2 4 6 12 11 17 11 6 0 7 -5 3 -11 -5 -8 -1 -8
14 0 27 14 35 14 26 -1 -5 -7 -3 -8 7 -2 8 4 37 10 64 12 28 2 56 4 63 4 6 1
12 6 12 12 0 6 5 4 10 -4 8 -13 13 -13 31 -2 14 9 19 9 14 2 -6 -9 -2 -9 13
-1 11 6 37 11 57 11 20 0 34 4 31 8 -3 5 1 9 9 9 8 0 11 -5 8 -11 -5 -7 -2 -7
8 0 8 6 26 11 41 10 14 -1 26 3 25 8 -1 6 5 10 13 11 28 1 85 17 97 27 7 5 17
7 23 3 5 -3 10 -1 10 5 0 6 5 8 10 5 6 -3 10 -1 10 4 0 6 9 11 20 11 11 0 20
5 20 11 0 5 5 7 10 4 6 -3 10 -1 10 5 0 6 4 8 10 5 6 -3 10 -1 10 5 0 6 5 8
10 5 6 -3 10 -1 10 5 0 6 4 9 9 6 5 -3 11 1 15 9 3 8 13 15 21 15 9 0 14 4 11
8 -3 5 6 15 19 22 13 7 22 16 20 20 -2 4 4 16 13 26 21 23 23 104 3 128 -8 9
-10 16 -7 16 4 0 -12 20 -36 43 -24 24 -46 42 -51 40 -4 -2 -7 1 -7 6 0 6 -7
11 -15 11 -8 0 -15 5 -15 11 0 5 -4 8 -9 4 -5 -3 -16 2 -25 11 -9 8 -25 16
-36 17 -11 1 -20 5 -20 9 0 4 -9 8 -20 8 -11 0 -20 4 -20 9 0 5 -8 8 -17 7
-10 -2 -29 4 -43 13 -20 13 -23 14 -16 1 7 -12 6 -13 -5 -2 -7 6 -22 12 -34
12 -12 0 -27 6 -34 13 -11 10 -12 9 -6 -1 6 -11 3 -11 -16 -1 -55 28 -61 31
-54 20 7 -12 -5 -14 -20 -3 -13 9 -39 56 -27 48 11 -7 10 144 -1 162 -6 8 -4
12 5 10 7 -2 12 2 11 7 -1 7 236 10 695 10 l697 0 0 1035 0 1035 -1722 0
c-1143 0 -1723 -3 -1724 -10z"/>
<path d="M1195 570 c-3 -5 -1 -10 4 -10 6 0 11 5 11 10 0 6 -2 10 -4 10 -3 0
-8 -4 -11 -10z"/>
</g>
</svg>
